# xmcd
#
# Track frame offsets:
#	150
#	11072
#	29509
#	39877
#	54651
#	67008
#	81934
#	93595
#	103113
#	113520
#	127662
#	139370
#	152919
#	166178
#	177002
#
# Disc length: 2536 seconds
#
# Revision: 1
# Processed by: cddbd v1.4PL0 Copyright (c) Steve Scherf et al.
# Submitted via: audiograbber 1.81.03
#
DISCID=c009e60f
DTITLE=Los Lideres De Tierra Caliente - 15 Exitos
DYEAR=1900
DGENRE=
TTITLE0=Cuando Hagamos Las Cuentas
TTITLE1=Te Llevaste
TTITLE2=El Prisionero
TTITLE3=Ya No Queda Nada
TTITLE4=Ahora Que Me Voy
TTITLE5=Con Cartitas
TTITLE6=Guerrerense Hasta El Tope
TTITLE7=Piensalo Bien
TTITLE8=El Billete De 500
TTITLE9=Tu Mala Entaña
TTITLE10=Miguel Perez
TTITLE11=La Muerte De Un Cancionero
TTITLE12=Me Importa Madre
TTITLE13=Las Cuatro Fronteras
TTITLE14=Dos Viejos Amigos
EXTD=
EXTT0=
EXTT1=
EXTT2=
EXTT3=
EXTT4=
EXTT5=
EXTT6=
EXTT7=
EXTT8=
EXTT9=
EXTT10=
EXTT11=
EXTT12=
EXTT13=
EXTT14=
PLAYORDER=
